<svg width="136" height="136" fill="none" xmlns="http://www.w3.org/2000/svg"><path d="M12.38 62.947c4-3.6 11.7-3.8 15.6-.1-2.4.2-4.7 1.6-6.1 3.6-1.4 2.1-1.7 4.7-1 7 1.5 4.6 7 7 11.7 6.2 4.8-.8 8.8-4 11.9-7.7 6.6-7.7 10.3-17.9 10.2-28-1.6 3.8-5.1 7.4-9 8.7-3.9 1.3-8.6.2-11.2-2.9-2.6-3.1-2.4-8.4.7-11-.1 2.5 2.4 4.8 4.9 5.2 2.6.3 5.2-1 6.7-3 1.6-2 2.1-4.7 2-7.2-.1-2.5-.9-5-1.8-7.4-1.6-4.2-3.7-8.3-6.8-11.6-3.1-3.3-7.2-5.8-11.7-6.3-4.5-.5-9.4 1.2-12.1 4.8-1.9 2.6-2.7 6.1-1.4 9 1.3 2.9 6 6.2 7.8 3.6-2.7 4-9.9 6.3-14.4 4.6-4.5-1.7-7.8-6.2-8.3-11-.5-4.8 1.4-9.7 4.8-13.2 2.8-2.9 5.943-4.695 10.5-5.7 1.574-.348 2.488-.415 4.1-.5 10.615-.561 18.6 4 24.9 11 6.6 7.5 11 14.4 11.2 27.3 3.9 12 .8 25.7-6.6 36-3.2 4.5-7.1 8.4-11.9 11-4.7 2.5-10.4 3.7-15.7 2.5-5.3-1.2-10.2-4.9-12.2-9.9-2-5.1-.9-11.4 3.2-15z" fill="#fff"/><path d="M53.98 85.847v-4.6h-4.6c-19.6 19.599-33.7 17.7-41.1 10.3l1 7.1c1 7.599 9.3 11.899 16.1 8.399l6.1-3.099-3.1 6.099c-3.5 6.8.8 15 8.4 16.1l7.1 1c-7.5-7.5-9.4-21.7 10.1-41.3z" fill="#fff"/><path d="M21.38 124.646h-10.7v-10.699h10.7v10.699zM69.88 65.447h14.4l.1-14.5-14.5.1v14.4zM135.379 115.946c.6-9.3-4-18.7-11-24.9-7.5-6.6-14.4-11-27.3-11.2-12-3.9-25.7-.8-36 6.6-4.4 3.2-8.4 7.1-11 11.9-2.6 4.8-3.7 10.4-2.5 15.7 1.2 5.3 4.8 10.1 9.9 12.2 5 2 11.4.9 15-3.2 3.6-4.1 3.9-11.7.1-15.6a8.2 8.2 0 01-3.6 6.1c-2.1 1.4-4.7 1.7-7 1-4.6-1.5-7-7-6.2-11.7.8-4.7 4-8.7 7.7-11.9 7.7-6.6 17.9-10.3 28-10.2-3.8 1.6-7.4 5.2-8.7 9-1.3 3.9-.3 8.6 2.9 11.2 3.2 2.6 8.4 2.4 11-.7-2.5.1-4.8-2.4-5.2-4.9-.4-2.5.9-5.1 3-6.7 2-1.5 4.7-2.1 7.2-2 2.5.1 5 .9 7.4 1.8 4.2 1.6 8.3 3.7 11.6 6.8 3.3 3.1 5.8 7.2 6.3 11.7.5 4.5-1.2 9.3-4.8 12.1-2.5 1.9-6.1 2.7-9 1.4-2.9-1.3-6.2-6-3.6-7.8-4 2.7-6.3 9.9-4.6 14.4 1.7 4.5 6.2 7.7 11 8.3 4.8.5 9.7-1.4 13.2-4.8 2.9-2.8 4.8-6.5 5.7-10.5.336-1.493.429-2.964.487-3.899l.013-.201z" fill="#fff"/></svg>