<svg width="298" height="158" viewBox="0 0 298 158" fill="none" xmlns="http://www.w3.org/2000/svg">
<path fill-rule="evenodd" clip-rule="evenodd" d="M148.517 0C104.055 0 68 36.0467 68 80.5173C68 116.091 91.0707 146.272 123.063 156.919C127.087 157.664 128.564 155.172 128.564 153.045C128.564 151.127 128.489 144.783 128.455 138.055C106.055 142.925 101.328 128.555 101.328 128.555C97.6653 119.249 92.388 116.773 92.388 116.773C85.0827 111.776 92.9387 111.879 92.9387 111.879C101.024 112.447 105.281 120.177 105.281 120.177C112.463 132.485 124.117 128.927 128.712 126.869C129.436 121.667 131.521 118.113 133.824 116.103C115.94 114.068 97.14 107.163 97.14 76.3107C97.14 67.5213 100.285 60.3387 105.436 54.7C104.6 52.6707 101.844 44.4813 106.217 33.3907C106.217 33.3907 112.979 31.228 128.364 41.6453C134.787 39.8613 141.675 38.9667 148.517 38.9347C155.36 38.9667 162.253 39.8613 168.688 41.6453C184.056 31.228 190.808 33.3907 190.808 33.3907C195.191 44.4813 192.435 52.6707 191.599 54.7C196.761 60.3387 199.884 67.5213 199.884 76.3107C199.884 107.237 181.048 114.045 163.119 116.039C166.007 118.537 168.58 123.437 168.58 130.949C168.58 141.723 168.488 150.393 168.488 153.045C168.488 155.189 169.936 157.7 174.017 156.909C205.993 146.251 229.035 116.08 229.035 80.5173C229.035 36.0467 192.985 0 148.517 0Z" fill="white"/>
<path d="M98.4965 115.604C98.3192 116.006 97.6899 116.126 97.1165 115.85C96.5312 115.587 96.2045 115.042 96.3939 114.64C96.5672 114.23 97.1965 114.115 97.7805 114.39C98.3645 114.652 98.6979 115.203 98.4965 115.604Z" fill="white"/>
<path d="M101.758 119.242C101.374 119.598 100.622 119.433 100.114 118.87C99.5863 118.309 99.4889 117.557 99.8783 117.197C100.274 116.841 101.002 117.008 101.529 117.569C102.057 118.137 102.16 118.882 101.758 119.242Z" fill="white"/>
<path d="M104.933 123.879C104.44 124.223 103.632 123.902 103.133 123.186C102.64 122.468 102.639 121.61 103.145 121.266C103.643 120.922 104.44 121.232 104.945 121.942C105.437 122.67 105.437 123.528 104.933 123.879Z" fill="white"/>
<path d="M109.282 128.359C108.84 128.846 107.9 128.715 107.212 128.051C106.508 127.402 106.312 126.481 106.754 125.994C107.202 125.506 108.147 125.643 108.84 126.302C109.539 126.95 109.751 127.878 109.282 128.359Z" fill="white"/>
<path d="M115.282 130.961C115.086 131.592 114.182 131.877 113.27 131.609C112.359 131.333 111.763 130.596 111.947 129.958C112.136 129.322 113.046 129.025 113.964 129.312C114.874 129.586 115.471 130.32 115.282 130.961Z" fill="white"/>
<path d="M121.872 131.443C121.894 132.107 121.121 132.657 120.164 132.669C119.201 132.692 118.421 132.153 118.41 131.5C118.41 130.829 119.168 130.285 120.129 130.268C121.086 130.249 121.872 130.784 121.872 131.443Z" fill="white"/>
<path d="M128.003 130.4C128.118 131.046 127.452 131.712 126.502 131.889C125.567 132.061 124.702 131.66 124.583 131.018C124.467 130.354 125.143 129.689 126.078 129.517C127.03 129.352 127.882 129.741 128.003 130.4Z" fill="white"/>
<path d="M234.098 110.259C235.263 111.484 236.422 112.684 237.644 113.727C238.415 114.385 238.679 115.495 238.175 116.375C231.321 128.348 223.774 134.723 215.404 140.002C214.398 140.636 213.218 139.111 214.008 138.222C221.254 130.074 226.823 120.779 230.795 110.926C231.342 109.57 233.09 109.199 234.098 110.259Z" fill="white"/>
<path d="M217.993 141.999C226.526 135.803 233.331 131.728 240.168 119.475C240.834 118.28 242.467 118.034 243.458 118.976C244.485 119.951 245.482 120.813 246.531 121.594C247.527 122.334 247.755 123.78 246.927 124.704C237.866 134.806 229.88 140.805 218.708 143.592C217.694 143.844 217.148 142.613 217.993 141.999Z" fill="white"/>
<path d="M229.33 142.826C239.173 138.339 246.379 133.868 252.622 127.329C253.391 126.523 254.664 126.46 255.548 127.138C257.465 128.608 259.513 129.757 261.447 130.858C262.748 131.599 262.727 133.427 261.424 134.164C251.716 139.658 241.379 144.545 229.663 144.593C228.625 144.597 228.386 143.256 229.33 142.826Z" fill="white"/>
<path d="M267.217 135.921C278.094 142.362 294.986 148.209 296.105 148.513C297.224 148.818 297.02 150 297.02 150L203.035 150L203.035 148.142C227.446 146.841 253.791 148.142 267.217 135.921Z" fill="white"/>
<path d="M62.937 110.259C61.7712 111.484 60.6127 112.684 59.3908 113.727C58.62 114.385 58.3561 115.495 58.8596 116.375C65.7137 128.348 73.2611 134.723 81.6309 140.002C82.6364 140.636 83.8167 139.111 83.0267 138.222C75.7804 130.074 70.2115 120.779 66.2396 110.926C65.693 109.57 63.9449 109.199 62.937 110.259Z" fill="white"/>
<path d="M79.0414 141.999C70.509 135.803 63.7035 131.728 56.8665 119.475C56.2003 118.28 54.5681 118.034 53.5764 118.976C52.5494 119.951 51.5528 120.813 50.5035 121.594C49.5076 122.334 49.2793 123.78 50.1078 124.704C59.1682 134.806 67.1551 140.805 78.3267 143.592C79.3405 143.844 79.8869 142.613 79.0414 141.999Z" fill="white"/>
<path d="M67.7043 142.826C57.8621 138.339 50.6558 133.868 44.4131 127.329C43.6436 126.523 42.3707 126.46 41.4865 127.138C39.5698 128.608 37.5217 129.757 35.5876 130.858C34.2865 131.599 34.3079 133.427 35.611 134.164C45.3184 139.658 55.6561 144.545 67.3721 144.593C68.4099 144.597 68.6486 143.256 67.7043 142.826Z" fill="white"/>
<path d="M29.8172 135.921C18.9408 142.362 2.04882 148.209 0.929913 148.513C-0.188992 148.818 0.0144704 150 0.0144704 150L94 150L94 148.142C69.5882 146.841 43.2438 148.142 29.8172 135.921Z" fill="white"/>
</svg>
