<svg width="14" height="14" viewBox="0 0 14 14" fill="none" xmlns="http://www.w3.org/2000/svg">
<path fill-rule="evenodd" clip-rule="evenodd" d="M0 11V14H3L11 6.00004L8 3.00004L0 11ZM3 13H1V11H2V12H3V13ZM13.3 3.70004L12 5.00004L9 2.00004L10.3 0.700037C10.3925 0.607333 10.5024 0.533786 10.6234 0.483604C10.7443 0.433423 10.874 0.407593 11.005 0.407593C11.136 0.407593 11.2657 0.433423 11.3866 0.483604C11.5076 0.533786 11.6175 0.607333 11.71 0.700037L13.3 2.29004C13.69 2.68004 13.69 3.31004 13.3 3.70004V3.70004Z" fill="#636363"/>
</svg>
