<svg width="168" height="687" viewBox="0 0 168 687" fill="none" xmlns="http://www.w3.org/2000/svg">
<path d="M167.115 474.275C158.262 458.329 148.771 443.508 141.846 426.682C141.297 425.347 139.553 424.992 138.539 426.019C76.6981 488.694 51.1018 559.348 25.8715 639.861C25.5046 641.031 27.2348 641.736 27.808 640.651C67.2978 565.911 115.204 511.746 166.488 476.898C167.345 476.316 167.618 475.18 167.115 474.275Z" fill="white"/>
<path d="M24.8204 595.447C55.5534 520.899 69.9886 464.627 130.785 407.084C131.453 406.451 131.62 405.433 131.17 404.629C122.253 388.682 115.414 375.011 109.69 358.717C109.13 357.122 106.956 356.876 106.061 358.31C58.9604 433.835 32.9645 497.786 22.9466 594.965C22.8291 596.104 24.3838 596.506 24.8204 595.447Z" fill="white"/>
<path d="M23.9396 514.318C44.7581 427.179 64.5179 367.191 96.0572 315.508C96.4172 314.918 96.4491 314.186 96.1442 313.566C85.5054 291.922 78.9189 266.605 71.8041 245.146C71.1995 243.323 68.6456 243.353 68.0664 245.185C42.3855 326.402 18.3358 413.244 21.9986 514.135C22.0406 515.293 23.6704 515.445 23.9396 514.318Z" fill="white"/>
<path d="M56.317 217.92C30.5533 138.429 7.16575 14.9738 5.94673 6.79628C4.7277 -1.38125 0 0.105757 0 0.105757V687H7.43364C12.6372 508.586 7.43364 316.047 56.317 217.92Z" fill="white"/>
</svg>
