<svg width="197" height="196" viewBox="0 0 197 196" fill="none" xmlns="http://www.w3.org/2000/svg">
<path d="M107.035 12.9453C106.636 19.1258 109.693 25.3728 114.345 29.4931C119.329 33.8793 123.914 36.8034 132.487 36.9363C140.461 39.5281 149.566 37.468 156.41 32.5501C159.334 30.4235 161.992 27.8317 163.72 24.6418C165.448 21.4518 166.179 17.7302 165.382 14.208C164.584 10.6857 162.192 7.49579 158.803 6.10019C155.48 4.77105 151.227 5.50209 148.835 8.22683C146.442 10.9516 146.243 16.0023 148.768 18.5941C148.901 16.9992 149.765 15.4707 151.16 14.5403C152.556 13.6099 154.284 13.4105 155.812 13.8757C158.869 14.8725 160.464 18.5277 159.932 21.6512C159.401 24.7747 157.274 27.4329 154.815 29.5596C149.698 33.9457 142.92 36.4046 136.208 36.3382C138.734 35.2749 141.126 32.8824 141.99 30.3571C142.854 27.7652 142.189 24.6417 140.063 22.9138C137.936 21.186 134.48 21.3189 132.753 23.3791C134.414 23.3126 135.942 24.974 136.208 26.6355C136.474 28.2969 135.61 30.0248 134.215 31.0881C132.885 32.085 131.091 32.4837 129.43 32.4172C127.769 32.3508 126.107 31.8191 124.512 31.221C121.721 30.1577 118.997 28.7621 116.804 26.7019C114.611 24.6417 112.949 21.917 112.617 18.9264C112.285 15.9358 113.414 12.7459 115.807 10.8851C117.468 9.62243 119.86 9.09076 121.788 9.95471C123.715 10.8187 125.908 13.9422 124.18 15.1384C126.838 13.3441 128.367 8.55912 127.237 5.56855C126.107 2.57798 123.117 0.451352 119.927 0.052617C116.737 -0.27967 113.481 0.983003 111.155 3.24255C109.228 5.10335 107.965 7.56226 107.367 10.2206C107.144 11.2122 107.082 12.1887 107.043 12.8099L107.043 12.8115L107.035 12.9453Z" fill="white"/>
<path d="M161.129 36.0059V32.9489C174.087 19.9233 172.825 10.4864 167.84 5.5021L172.559 6.16667C177.609 6.8977 180.467 12.3472 178.141 16.8662L176.081 20.9201L180.135 18.86C184.653 16.534 190.169 19.3916 190.834 24.4424L191.498 29.1608C186.581 24.243 177.211 22.9803 164.186 36.0059H161.129Z" fill="white"/>
<path d="M178.407 48.234C180.998 50.693 186.115 50.56 188.774 48.1676C191.498 45.7751 192.229 41.5883 190.9 38.199C189.571 34.8761 186.315 32.4172 182.793 31.6197C179.271 30.8223 175.483 31.6197 172.359 33.2812C169.17 35.0091 166.578 37.6009 164.451 40.5915C159.534 47.4366 157.474 56.5412 160.065 64.516C160.198 73.089 163.122 77.6745 167.508 82.6588C171.695 87.3108 177.001 90.3416 184.055 89.9691C185.126 89.9126 185.733 89.8677 186.78 89.6368C189.808 88.9689 191.897 87.776 193.758 85.8488C196.017 83.5228 197.28 80.2664 196.947 77.0764C196.615 73.8865 194.422 70.8959 191.432 69.7661C188.441 68.6364 183.657 70.1649 181.862 72.8232C183.059 71.0953 186.182 73.2884 187.046 75.2156C187.91 77.1429 187.378 79.4689 186.115 81.1968C184.321 83.5892 181.065 84.719 178.074 84.3867C175.084 84.0544 172.359 82.393 170.299 80.1999C168.239 78.0068 166.844 75.2821 165.78 72.4909C165.182 70.8959 164.651 69.2345 164.584 67.5731C164.518 65.9116 164.85 64.1173 165.913 62.7881C166.91 61.459 168.638 60.5951 170.366 60.7944C172.027 61.0602 173.688 62.5888 173.622 64.2502C175.682 62.5223 175.815 59.0001 174.087 56.9399C172.359 54.8797 169.236 54.1487 166.644 55.0127C164.053 55.8766 161.727 58.269 160.663 60.7944C160.597 54.0822 163.056 47.3036 167.442 42.1864C169.502 39.7275 172.16 37.6009 175.35 37.0692C178.473 36.5376 182.128 38.1325 183.125 41.1895C183.59 42.7181 183.391 44.4459 182.46 45.8415C181.53 47.1707 180.002 48.1011 178.407 48.234Z" fill="white"/>
<path d="M182.793 7.16352H189.903V14.2744H182.793V7.16352Z" fill="white"/>
<path d="M140.993 46.5061L150.562 46.5061V56.076L140.927 56.1424L140.993 46.5061Z" fill="white"/>
<path d="M48.1676 8.22644C50.56 10.8846 50.693 16.0016 48.234 18.5933C48.1011 16.9984 47.1707 15.47 45.8416 14.5396C44.446 13.6092 42.7181 13.4099 41.1896 13.875C38.1325 14.8719 36.5376 18.5268 37.0692 21.6502C37.6009 24.84 39.7275 27.4982 42.1864 29.5582C47.3036 33.9443 54.0823 36.403 60.7944 36.3366C58.2691 35.2733 55.8766 32.9475 55.0127 30.3557C54.1487 27.764 54.8797 24.6407 56.9399 22.9128C59.0001 21.185 62.5223 21.318 64.2502 23.378C62.5888 23.3116 61.0603 24.9729 60.7944 26.6343C60.5951 28.3621 61.459 30.0899 62.7881 31.0867C64.1173 32.15 65.9116 32.4822 67.5731 32.4158C69.2345 32.3494 70.8959 31.8177 72.4909 31.2196C75.2821 30.1563 78.0068 28.7608 80.1999 26.7007C82.393 24.6407 84.0544 21.916 84.3867 18.9256C84.719 15.9351 83.5892 12.6789 81.1968 10.8846C79.4689 9.62196 77.1429 9.09037 75.2156 9.95423C73.2884 10.8182 71.0953 13.9415 72.8232 15.1377C70.1649 13.3435 68.6364 8.55871 69.7661 5.56827C70.8959 2.57783 73.8865 0.384892 77.0764 0.0526208C80.2664 -0.279651 83.5228 0.982915 85.8488 3.24238C87.776 5.10312 88.9689 7.19231 89.6368 10.2201C89.8678 11.2669 89.9126 11.8743 89.9691 12.9447C90.3416 19.9994 87.3108 25.3052 82.6588 29.4918C77.6746 33.8778 73.089 36.8018 64.5161 36.9347C56.5412 39.5264 47.4366 37.4663 40.5915 32.5487C37.6009 30.4222 35.0091 27.8304 33.2812 24.6407C31.6198 21.5173 30.8223 17.7294 31.6198 14.2073C32.4172 10.6853 34.8761 7.42902 38.199 6.09993C41.5883 4.77085 45.7751 5.50183 48.1676 8.22644Z" fill="white"/>
<path d="M32.9489 35.8714H36.0059V32.8145C22.9803 19.7895 24.243 10.4195 29.1608 5.50183L24.4424 6.16637C19.3916 6.83091 16.534 12.3466 18.86 16.8655L20.9201 20.9192L16.8663 18.8591C12.3472 16.5332 6.89771 19.3908 6.16667 24.4413L5.5021 29.1595C10.4864 24.1754 19.9233 22.9128 32.9489 35.8714Z" fill="white"/>
<path d="M7.16353 7.09675V14.2073H14.2744L14.2744 7.09675L7.16353 7.09675Z" fill="white"/>
<path d="M46.5061 46.4376V56.007L56.1424 56.0735L56.076 46.4376H46.5061Z" fill="white"/>
<path d="M29.4931 82.6552C25.3728 87.307 19.1258 90.3639 12.9453 89.9651L12.8119 89.9567C12.1907 89.9177 11.2132 89.8563 10.2206 89.6329C7.56226 89.0348 5.10335 87.7722 3.24255 85.845C0.983003 83.5191 -0.27967 80.2628 0.052617 77.0731C0.451352 73.8832 2.57798 70.8928 5.56855 69.7631C8.55912 68.6333 13.3441 70.1618 15.1384 72.82C13.9422 71.0922 10.8187 73.2851 9.95471 75.2123C9.09076 77.1395 9.62243 79.5318 10.8851 81.1932C12.7459 83.5855 15.9358 84.7153 18.9264 84.383C21.917 84.0508 24.6417 82.3894 26.7019 80.1964C28.7621 78.0034 30.1577 75.2788 31.221 72.4877C31.8191 70.8928 32.3508 69.2314 32.4173 67.5701C32.4837 65.9087 32.085 64.1145 31.0881 62.7854C30.0248 61.3898 28.2969 60.526 26.6355 60.7918C24.974 61.0575 23.3126 62.586 23.3791 64.2474C21.3189 62.5196 21.186 59.0639 22.9138 56.9374C24.6417 54.8108 27.7652 54.1464 30.3571 55.0102C32.8824 55.8742 35.2749 58.2665 36.3382 60.7918C36.4046 54.0798 33.9457 47.3015 29.5596 42.1846C27.4329 39.7257 24.7747 37.5992 21.6512 37.0676C18.5277 36.536 14.8726 38.1308 13.8757 41.1878C13.4105 42.7162 13.6099 44.444 14.5403 45.8396C15.4707 47.2351 16.9992 48.099 18.5941 48.2319C16.0023 50.7571 10.9516 50.5578 8.22684 48.1655C5.50209 45.7731 4.77106 41.5201 6.1002 38.1974C7.4958 34.8081 10.6858 32.4158 14.208 31.6184C17.7302 30.8209 21.4518 31.5519 24.6418 33.2797C27.8317 35.0075 30.4235 37.6657 32.5501 40.5897C37.468 47.4344 39.5282 56.5387 36.9363 64.5132C36.8034 73.0858 33.8793 77.6711 29.4931 82.6552Z" fill="white"/>
<path d="M82.8 62.4C75.7 62.4 69.9 56.6 69.9 49.5C69.9 42.4 75.7 36.6 82.8 36.6C89.9 36.6 95.7 42.4 95.7 49.5V62.4H82.8Z" fill="white"/>
<path d="M50.5 127.1C57.6 127.1 63.4 121.3 63.4 114.2V101.3H50.5C43.4 101.3 37.6 107.1 37.6 114.2C37.6 121.3 43.4 127.1 50.5 127.1Z" fill="white"/>
<path d="M82.8 101.3C75.7 101.3 69.9 107.1 69.9 114.2V146.5C69.9 153.6 75.7 159.4 82.8 159.4C89.9 159.4 95.7 153.6 95.7 146.5V114.2C95.7 107.1 89.9 101.3 82.8 101.3Z" fill="white"/>
<path d="M95.7 81.8C95.7 74.7 89.9 68.9 82.8 68.9H50.5C43.4 68.9 37.6 74.7 37.6 81.8C37.6 88.9 43.4 94.7 50.5 94.7H82.8C89.9 94.7 95.7 88.9 95.7 81.8Z" fill="white"/>
<path d="M134.6 81.8C134.6 74.7 140.4 68.9 147.5 68.9C154.6 68.9 160.4 74.7 160.4 81.8C160.4 88.9 154.6 94.7 147.5 94.7H134.6V81.8Z" fill="white"/>
<path d="M115.2 94.7C122.3 94.7 128.1 88.9 128.1 81.8V49.5C128.1 42.4 122.3 36.6 115.2 36.6C108.1 36.6 102.3 42.4 102.3 49.5V81.8C102.3 88.9 108.1 94.7 115.2 94.7Z" fill="white"/>
<path d="M115.2 133.6C122.3 133.6 128.1 139.4 128.1 146.5C128.1 153.6 122.3 159.4 115.2 159.4C108.1 159.4 102.3 153.6 102.3 146.5V133.6H115.2Z" fill="white"/>
<path d="M102.3 114.2C102.3 121.3 108.1 127.1 115.2 127.1H147.5C154.6 127.1 160.4 121.3 160.4 114.2C160.4 107.1 154.6 101.3 147.5 101.3H115.2C108.1 101.3 102.3 107.1 102.3 114.2Z" fill="white"/>
<path d="M18.5933 147.766C16.0016 145.307 10.8846 145.44 8.22644 147.832C5.50183 150.225 4.77085 154.412 6.09993 157.801C7.42902 161.124 10.6853 163.583 14.2073 164.38C17.7294 165.178 21.5173 164.38 24.6407 162.719C27.8304 160.991 30.4222 158.399 32.5487 155.409C37.4663 148.563 39.5264 139.459 36.9347 131.484C36.8018 122.911 33.8777 118.325 29.4918 113.341C25.3052 108.689 19.9994 105.658 12.9447 106.031C11.8743 106.087 11.2668 106.132 10.2201 106.363C7.19231 107.031 5.10312 108.224 3.24237 110.151C0.982911 112.477 -0.279655 115.734 0.052617 118.924C0.384889 122.114 2.57783 125.104 5.56827 126.234C8.55871 127.364 13.3435 125.835 15.1377 123.177C13.9415 124.905 10.8182 122.712 9.95423 120.784C9.09037 118.857 9.62196 116.531 10.8846 114.803C12.6789 112.411 15.9351 111.281 18.9255 111.613C21.916 111.946 24.6407 113.607 26.7007 115.8C28.7608 117.993 30.1563 120.718 31.2196 123.509C31.8177 125.104 32.3493 126.766 32.4158 128.427C32.4822 130.088 32.15 131.883 31.0867 133.212C30.0899 134.541 28.3621 135.405 26.6343 135.206C24.9729 134.94 23.3116 133.411 23.378 131.75C21.318 133.478 21.185 137 22.9128 139.06C24.6407 141.12 27.764 141.851 30.3557 140.987C32.9475 140.123 35.2734 137.731 36.3366 135.206C36.403 141.918 33.9443 148.696 29.5582 153.814C27.4982 156.272 24.84 158.399 21.6502 158.931C18.5268 159.462 14.8719 157.867 13.875 154.81C13.4099 153.282 13.6092 151.554 14.5396 150.158C15.47 148.829 16.9984 147.899 18.5933 147.766Z" fill="white"/>
<path d="M35.8714 159.994V163.051C22.9128 176.077 24.1754 185.514 29.1595 190.498L24.4413 189.833C19.3908 189.102 16.5332 183.653 18.8591 179.134L20.9192 175.08L16.8655 177.14C12.3466 179.466 6.83091 176.608 6.16637 171.558L5.50183 166.839C10.4195 171.757 19.7895 173.02 32.8145 159.994H35.8714Z" fill="white"/>
<path d="M14.2073 188.836H7.09675V181.726H14.2073V188.836Z" fill="white"/>
<path d="M56.007 149.494H46.4376V139.924L56.0735 139.858L56.007 149.494Z" fill="white"/>
<path d="M89.9651 183.055C90.3639 176.874 87.307 170.627 82.6552 166.507C77.6711 162.121 73.0858 159.197 64.5132 159.064C56.5387 156.472 47.4344 158.532 40.5897 163.45C37.6657 165.576 35.0075 168.168 33.2797 171.358C31.5519 174.548 30.8209 178.27 31.6184 181.792C32.4158 185.314 34.8081 188.504 38.1973 189.9C41.5201 191.229 45.7731 190.498 48.1655 187.773C50.5578 185.048 50.7571 179.998 48.2319 177.406C48.099 179.001 47.2351 180.529 45.8396 181.46C44.444 182.39 42.7162 182.59 41.1878 182.124C38.1308 181.127 36.536 177.472 37.0676 174.349C37.5993 171.225 39.7258 168.567 42.1846 166.44C47.3015 162.054 54.0798 159.595 60.7918 159.662C58.2665 160.725 55.8742 163.118 55.0102 165.643C54.1464 168.235 54.8108 171.358 56.9374 173.086C59.0639 174.814 62.5196 174.681 64.2474 172.621C62.586 172.687 61.0575 171.026 60.7918 169.365C60.526 167.703 61.3898 165.975 62.7854 164.912C64.1145 163.915 65.9087 163.516 67.5701 163.583C69.2314 163.649 70.8928 164.181 72.4877 164.779C75.2788 165.842 78.0034 167.238 80.1964 169.298C82.3894 171.358 84.0508 174.083 84.383 177.074C84.7153 180.064 83.5855 183.254 81.1932 185.115C79.5318 186.378 77.1395 186.909 75.2123 186.045C73.2851 185.181 71.0922 182.058 72.82 180.862C70.1618 182.656 68.6333 187.441 69.7631 190.431C70.8928 193.422 73.8832 195.549 77.0731 195.947C80.2628 196.28 83.5191 195.017 85.845 192.757C87.7722 190.897 89.0348 188.438 89.6329 185.779C89.8563 184.787 89.9177 183.809 89.9567 183.188L89.9651 183.055Z" fill="white"/>
<path d="M167.507 113.345C171.627 108.693 177.874 105.636 184.055 106.035L184.188 106.043C184.809 106.082 185.787 106.144 186.779 106.367C189.438 106.965 191.897 108.228 193.757 110.155C196.017 112.481 197.28 115.737 196.947 118.927C196.549 122.117 194.422 125.107 191.431 126.237C188.441 127.367 183.656 125.838 181.862 123.18C183.058 124.908 186.181 122.715 187.045 120.788C187.909 118.86 187.378 116.468 186.115 114.807C184.254 112.414 181.064 111.285 178.074 111.617C175.083 111.949 172.358 113.611 170.298 115.804C168.238 117.997 166.842 120.721 165.779 123.512C165.181 125.107 164.649 126.769 164.583 128.43C164.516 130.091 164.915 131.885 165.912 133.215C166.975 134.61 168.703 135.474 170.365 135.208C172.026 134.942 173.687 133.414 173.621 131.753C175.681 133.48 175.814 136.936 174.086 139.063C172.358 141.189 169.235 141.854 166.643 140.99C164.118 140.126 161.725 137.734 160.662 135.208C160.595 141.92 163.054 148.698 167.44 153.815C169.567 156.274 172.225 158.401 175.349 158.932C178.472 159.464 182.127 157.869 183.124 154.812C183.589 153.284 183.39 151.556 182.46 150.16C181.529 148.765 180.001 147.901 178.406 147.768C180.998 145.243 186.048 145.442 188.773 147.835C191.498 150.227 192.229 154.48 190.9 157.803C189.504 161.192 186.314 163.584 182.792 164.382C179.27 165.179 175.548 164.448 172.358 162.72C169.168 160.992 166.576 158.334 164.45 155.41C159.532 148.566 157.472 139.461 160.064 131.487C160.197 122.914 163.121 118.329 167.507 113.345Z" fill="white"/>
<path d="M150.494 149.562V139.993L140.858 139.927L140.924 149.562H150.494Z" fill="white"/>
<path d="M148.832 187.774C146.44 185.115 146.307 179.998 148.766 177.407C148.899 179.002 149.829 180.53 151.158 181.46C152.554 182.391 154.282 182.59 155.81 182.125C158.867 181.128 160.462 177.473 159.931 174.35C159.399 171.16 157.272 168.502 154.814 166.442C149.696 162.056 142.918 159.597 136.206 159.663C138.731 160.727 141.123 163.053 141.987 165.644C142.851 168.236 142.12 171.359 140.06 173.087C138 174.815 134.478 174.682 132.75 172.622C134.411 172.688 135.94 171.027 136.206 169.366C136.405 167.638 135.541 165.91 134.212 164.913C132.883 163.85 131.088 163.518 129.427 163.584C127.766 163.651 126.104 164.182 124.509 164.78C121.718 165.844 118.993 167.239 116.8 169.299C114.607 171.359 112.946 174.084 112.613 177.074C112.281 180.065 113.411 183.321 115.803 185.115C117.531 186.378 119.857 186.91 121.784 186.046C123.712 185.182 125.905 182.059 124.177 180.862C126.835 182.657 128.364 187.441 127.234 190.432C126.104 193.422 123.114 195.615 119.924 195.947C116.734 196.28 113.477 195.017 111.151 192.758C109.224 190.897 108.031 188.808 107.363 185.78C107.132 184.733 107.087 184.126 107.031 183.055C106.658 176.001 109.689 170.695 114.341 166.508C119.325 162.122 123.911 159.198 132.484 159.065C140.459 156.474 149.563 158.534 156.409 163.451C159.399 165.578 161.991 168.17 163.719 171.359C165.38 174.483 166.178 178.271 165.38 181.793C164.583 185.315 162.124 188.571 158.801 189.9C155.412 191.229 151.225 190.498 148.832 187.774Z" fill="white"/>
<path d="M164.051 160.129H160.994V163.186C174.02 176.211 172.757 185.581 167.839 190.498L172.558 189.834C177.608 189.169 180.466 183.653 178.14 179.135L176.08 175.081L180.134 177.141C184.653 179.467 190.102 176.609 190.833 171.559L191.498 166.84C186.514 171.825 177.077 173.087 164.051 160.129Z" fill="white"/>
<path d="M189.836 188.903V181.793H182.726V188.903H189.836Z" fill="white"/>
</svg>
