<svg width="197" height="196" fill="none" xmlns="http://www.w3.org/2000/svg"><path d="M107.035 12.945c-.399 6.18 2.658 12.428 7.31 16.548 4.984 4.386 9.569 7.31 18.142 7.443 7.974 2.592 17.079.532 23.923-4.386 2.924-2.126 5.582-4.718 7.31-7.908 1.728-3.19 2.459-6.912 1.662-10.434-.798-3.522-3.19-6.712-6.579-8.108-3.323-1.329-7.576-.598-9.968 2.127-2.393 2.725-2.592 7.775-.067 10.367a5.45 5.45 0 012.392-4.054c1.396-.93 3.124-1.13 4.652-.664 3.057.997 4.652 4.652 4.12 7.775-.531 3.124-2.658 5.782-5.117 7.909-5.117 4.386-11.895 6.845-18.607 6.778 2.526-1.063 4.918-3.456 5.782-5.98.864-2.593.199-5.716-1.927-7.444-2.127-1.728-5.583-1.595-7.31.465 1.661-.066 3.189 1.595 3.455 3.256.266 1.662-.598 3.39-1.993 4.453-1.33.997-3.124 1.396-4.785 1.33-1.661-.067-3.323-.599-4.918-1.197-2.791-1.063-5.515-2.459-7.708-4.52-2.193-2.06-3.855-4.784-4.187-7.775-.332-2.99.797-6.18 3.19-8.04 1.661-1.264 4.053-1.795 5.981-.931 1.927.864 4.12 3.987 2.392 5.183 2.658-1.794 4.187-6.579 3.057-9.57-1.13-2.99-4.12-5.117-7.31-5.515-3.19-.333-6.446.93-8.772 3.19-1.927 1.86-3.19 4.32-3.788 6.978-.223.991-.285 1.968-.324 2.589v.002l-.008.133z" fill="#fff"/><path d="M161.129 36.006v-3.057c12.958-13.026 11.696-22.463 6.711-27.447l4.719.665c5.05.73 7.908 6.18 5.582 10.7l-2.06 4.053 4.054-2.06c4.518-2.326 10.034.532 10.699 5.582l.664 4.719c-4.917-4.918-14.287-6.18-27.312 6.845h-3.057z" fill="#fff"/><path d="M178.407 48.234c2.591 2.459 7.708 2.326 10.367-.066 2.724-2.393 3.455-6.58 2.126-9.969-1.329-3.323-4.585-5.782-8.107-6.58-3.522-.797-7.31 0-10.434 1.662-3.189 1.728-5.781 4.32-7.908 7.31-4.917 6.846-6.977 15.95-4.386 23.925.133 8.573 3.057 13.158 7.443 18.143 4.187 4.652 9.493 7.683 16.547 7.31 1.071-.056 1.678-.101 2.725-.332 3.028-.668 5.117-1.861 6.978-3.788 2.259-2.326 3.522-5.583 3.189-8.773-.332-3.19-2.525-6.18-5.515-7.31-2.991-1.13-7.775.399-9.57 3.057 1.197-1.728 4.32.465 5.184 2.393.864 1.927.332 4.253-.931 5.98-1.794 2.393-5.05 3.523-8.041 3.19-2.99-.332-5.715-1.993-7.775-4.186-2.06-2.193-3.455-4.918-4.519-7.71-.598-1.594-1.129-3.255-1.196-4.917-.066-1.661.266-3.456 1.329-4.785.997-1.329 2.725-2.193 4.453-1.994 1.661.266 3.322 1.795 3.256 3.456 2.06-1.728 2.193-5.25.465-7.31-1.728-2.06-4.851-2.791-7.443-1.927-2.591.864-4.917 3.256-5.981 5.781-.066-6.712 2.393-13.49 6.779-18.608 2.06-2.459 4.718-4.585 7.908-5.117 3.123-.531 6.778 1.063 7.775 4.12.465 1.53.266 3.257-.665 4.653-.93 1.329-2.458 2.26-4.053 2.392zM182.793 7.164h7.11v7.11h-7.11v-7.11zM140.993 46.506h9.569v9.57l-9.635.066.066-9.636zM48.168 8.226c2.392 2.659 2.525 7.776.066 10.367-.133-1.595-1.063-3.123-2.392-4.053-1.396-.93-3.124-1.13-4.652-.665-3.057.997-4.652 4.652-4.12 7.775.53 3.19 2.657 5.848 5.116 7.908 5.118 4.386 11.896 6.845 18.608 6.779-2.525-1.064-4.917-3.39-5.781-5.981-.864-2.592-.133-5.715 1.927-7.443 2.06-1.728 5.582-1.595 7.31.465-1.661-.066-3.19 1.595-3.456 3.256-.199 1.728.665 3.456 1.994 4.453 1.33 1.063 3.124 1.395 4.785 1.329 1.662-.067 3.323-.598 4.918-1.196 2.791-1.064 5.516-2.46 7.709-4.52 2.193-2.06 3.854-4.784 4.187-7.774.332-2.99-.798-6.247-3.19-8.041-1.728-1.263-4.054-1.795-5.981-.93-1.928.863-4.12 3.986-2.393 5.183-2.658-1.794-4.187-6.58-3.057-9.57 1.13-2.99 4.12-5.183 7.31-5.515 3.19-.333 6.447.93 8.773 3.19 1.927 1.86 3.12 3.95 3.788 6.977.23 1.047.276 1.654.332 2.725.373 7.054-2.658 12.36-7.31 16.547-4.984 4.386-9.57 7.31-18.143 7.443-7.975 2.591-17.08.531-23.925-4.386-2.99-2.127-5.582-4.719-7.31-7.908-1.661-3.124-2.459-6.912-1.661-10.434.797-3.522 3.256-6.778 6.579-8.107 3.39-1.33 7.576-.598 9.969 2.126z" fill="#fff"/><path d="M32.949 35.871h3.057v-3.056C22.98 19.79 24.243 10.42 29.16 5.502l-4.719.664c-5.05.665-7.908 6.18-5.582 10.7l2.06 4.053-4.054-2.06c-4.519-2.326-9.968.532-10.7 5.582l-.664 4.719c4.984-4.985 14.421-6.247 27.447 6.711z" fill="#fff"/><path d="M7.164 7.097v7.11h7.11v-7.11h-7.11zM46.506 46.438v9.569l9.636.067-.066-9.636h-9.57zM29.493 82.655c-4.12 4.652-10.367 7.709-16.548 7.31l-.133-.008c-.621-.04-1.599-.1-2.591-.324-2.659-.598-5.118-1.86-6.978-3.788-2.26-2.326-3.523-5.582-3.19-8.772.398-3.19 2.525-6.18 5.516-7.31 2.99-1.13 7.775.399 9.57 3.057-1.197-1.728-4.32.465-5.184 2.392-.864 1.927-.333 4.32.93 5.981 1.86 2.392 5.05 3.522 8.041 3.19 2.991-.332 5.716-1.994 7.776-4.187 2.06-2.193 3.456-4.917 4.519-7.708.598-1.595 1.13-3.257 1.196-4.918.067-1.661-.332-3.455-1.329-4.785-1.063-1.395-2.791-2.259-4.453-1.993-1.661.265-3.322 1.794-3.256 3.455-2.06-1.727-2.193-5.183-.465-7.31 1.728-2.126 4.851-2.79 7.443-1.927 2.525.864 4.918 3.257 5.981 5.782.067-6.712-2.392-13.49-6.778-18.607-2.127-2.46-4.785-4.586-7.909-5.117-3.123-.532-6.778 1.063-7.775 4.12-.465 1.528-.266 3.256.664 4.652a5.45 5.45 0 004.054 2.392c-2.592 2.525-7.642 2.326-10.367-.066C5.502 45.773 4.77 41.52 6.1 38.197c1.396-3.389 4.586-5.781 8.108-6.579 3.522-.797 7.244-.066 10.434 1.662 3.19 1.727 5.782 4.386 7.908 7.31 4.918 6.844 6.978 15.949 4.386 23.923-.133 8.573-3.057 13.158-7.443 18.142zM82.8 62.4c-7.1 0-12.9-5.8-12.9-12.9 0-7.1 5.8-12.9 12.9-12.9 7.1 0 12.9 5.8 12.9 12.9v12.9H82.8zM50.5 127.1c7.1 0 12.9-5.8 12.9-12.9v-12.9H50.5c-7.1 0-12.9 5.8-12.9 12.9 0 7.1 5.8 12.9 12.9 12.9zM82.8 101.3c-7.1 0-12.9 5.8-12.9 12.9v32.3c0 7.1 5.8 12.9 12.9 12.9 7.1 0 12.9-5.8 12.9-12.9v-32.3c0-7.1-5.8-12.9-12.9-12.9zM95.7 81.8c0-7.1-5.8-12.9-12.9-12.9H50.5c-7.1 0-12.9 5.8-12.9 12.9 0 7.1 5.8 12.9 12.9 12.9h32.3c7.1 0 12.9-5.8 12.9-12.9zM134.6 81.8c0-7.1 5.8-12.9 12.9-12.9 7.1 0 12.9 5.8 12.9 12.9 0 7.1-5.8 12.9-12.9 12.9h-12.9V81.8zM115.2 94.7c7.1 0 12.9-5.8 12.9-12.9V49.5c0-7.1-5.8-12.9-12.9-12.9-7.1 0-12.9 5.8-12.9 12.9v32.3c0 7.1 5.8 12.9 12.9 12.9zM115.2 133.6c7.1 0 12.9 5.8 12.9 12.9 0 7.1-5.8 12.9-12.9 12.9-7.1 0-12.9-5.8-12.9-12.9v-12.9h12.9zM102.3 114.2c0 7.1 5.8 12.9 12.9 12.9h32.3c7.1 0 12.9-5.8 12.9-12.9 0-7.1-5.8-12.9-12.9-12.9h-32.3c-7.1 0-12.9 5.8-12.9 12.9zM18.593 147.766c-2.591-2.459-7.708-2.326-10.367.066-2.724 2.393-3.455 6.58-2.126 9.969 1.329 3.323 4.585 5.782 8.107 6.579 3.522.798 7.31 0 10.434-1.661 3.19-1.728 5.781-4.32 7.908-7.31 4.917-6.846 6.977-15.95 4.386-23.925-.133-8.573-3.057-13.159-7.443-18.143-4.187-4.652-9.493-7.683-16.547-7.31-1.07.056-1.678.101-2.725.332-3.028.668-5.117 1.861-6.978 3.788-2.26 2.326-3.522 5.583-3.19 8.773.333 3.19 2.526 6.18 5.516 7.31s7.776-.399 9.57-3.057c-1.197 1.728-4.32-.465-5.184-2.393-.864-1.927-.332-4.253.93-5.981 1.795-2.392 5.051-3.522 8.041-3.19 2.991.333 5.716 1.994 7.776 4.187 2.06 2.193 3.455 4.918 4.519 7.709.598 1.595 1.13 3.257 1.196 4.918.066 1.661-.266 3.456-1.33 4.785-.996 1.329-2.724 2.193-4.452 1.994-1.661-.266-3.322-1.795-3.256-3.456-2.06 1.728-2.193 5.25-.465 7.31 1.728 2.06 4.851 2.791 7.443 1.927 2.591-.864 4.917-3.256 5.98-5.781.067 6.712-2.392 13.49-6.778 18.608-2.06 2.458-4.718 4.585-7.908 5.117-3.123.531-6.778-1.064-7.775-4.121-.465-1.528-.266-3.256.665-4.652.93-1.329 2.458-2.259 4.053-2.392z" fill="#fff"/><path d="M35.871 159.994v3.057c-12.958 13.026-11.696 22.463-6.712 27.447l-4.718-.665c-5.05-.731-7.908-6.18-5.582-10.699l2.06-4.054-4.053 2.06c-4.52 2.326-10.035-.532-10.7-5.582l-.664-4.719c4.917 4.918 14.288 6.181 27.313-6.845h3.056z" fill="#fff"/><path d="M14.207 188.836h-7.11v-7.11h7.11v7.11zM56.007 149.494h-9.57v-9.57l9.637-.066-.067 9.636zM89.965 183.055c.399-6.181-2.658-12.428-7.31-16.548-4.984-4.386-9.57-7.31-18.142-7.443-7.974-2.592-17.079-.532-23.923 4.386-2.924 2.126-5.583 4.718-7.31 7.908-1.728 3.19-2.46 6.912-1.662 10.434.798 3.522 3.19 6.712 6.58 8.108 3.322 1.329 7.575.598 9.968-2.127 2.392-2.725 2.591-7.775.066-10.367a5.45 5.45 0 01-2.392 4.054c-1.396.93-3.124 1.13-4.652.664-3.057-.997-4.652-4.652-4.12-7.775.531-3.124 2.658-5.782 5.117-7.909 5.116-4.386 11.895-6.845 18.607-6.778-2.526 1.063-4.918 3.456-5.782 5.981-.864 2.592-.2 5.715 1.927 7.443 2.127 1.728 5.583 1.595 7.31-.465-1.661.066-3.19-1.595-3.455-3.256-.266-1.662.598-3.39 1.993-4.453 1.33-.997 3.124-1.396 4.785-1.329 1.661.066 3.323.598 4.918 1.196 2.79 1.063 5.515 2.459 7.708 4.519 2.193 2.06 3.855 4.785 4.187 7.776.332 2.99-.797 6.18-3.19 8.041-1.661 1.263-4.053 1.794-5.98.93-1.928-.864-4.12-3.987-2.393-5.183-2.658 1.794-4.187 6.579-3.057 9.569 1.13 2.991 4.12 5.118 7.31 5.516 3.19.333 6.446-.93 8.772-3.19 1.927-1.86 3.19-4.319 3.788-6.978.223-.992.285-1.97.324-2.591l.008-.133zM167.507 113.345c4.12-4.652 10.367-7.709 16.548-7.31l.133.008c.621.039 1.599.101 2.591.324 2.659.598 5.118 1.861 6.978 3.788 2.26 2.326 3.523 5.582 3.19 8.772-.398 3.19-2.525 6.18-5.516 7.31-2.99 1.13-7.775-.399-9.569-3.057 1.196 1.728 4.319-.465 5.183-2.392.864-1.928.333-4.32-.93-5.981-1.861-2.393-5.051-3.522-8.041-3.19-2.991.332-5.716 1.994-7.776 4.187-2.06 2.193-3.456 4.917-4.519 7.708-.598 1.595-1.13 3.257-1.196 4.918-.067 1.661.332 3.455 1.329 4.785 1.063 1.395 2.791 2.259 4.453 1.993 1.661-.266 3.322-1.794 3.256-3.455 2.06 1.727 2.193 5.183.465 7.31-1.728 2.126-4.851 2.791-7.443 1.927-2.525-.864-4.918-3.256-5.981-5.782-.067 6.712 2.392 13.49 6.778 18.607 2.127 2.459 4.785 4.586 7.909 5.117 3.123.532 6.778-1.063 7.775-4.12.465-1.528.266-3.256-.664-4.652a5.452 5.452 0 00-4.054-2.392c2.592-2.525 7.642-2.326 10.367.067 2.725 2.392 3.456 6.645 2.127 9.968-1.396 3.389-4.586 5.781-8.108 6.579-3.522.797-7.244.066-10.434-1.662-3.19-1.728-5.782-4.386-7.908-7.31-4.918-6.844-6.978-15.949-4.386-23.923.133-8.573 3.057-13.158 7.443-18.142zM150.494 149.562v-9.569l-9.636-.066.066 9.635h9.57zM148.832 187.774c-2.392-2.659-2.525-7.776-.066-10.367.133 1.595 1.063 3.123 2.392 4.053 1.396.931 3.124 1.13 4.652.665 3.057-.997 4.652-4.652 4.121-7.775-.532-3.19-2.659-5.848-5.117-7.908-5.118-4.386-11.896-6.845-18.608-6.779 2.525 1.064 4.917 3.39 5.781 5.981.864 2.592.133 5.715-1.927 7.443-2.06 1.728-5.582 1.595-7.31-.465 1.661.066 3.19-1.595 3.456-3.256.199-1.728-.665-3.456-1.994-4.453-1.329-1.063-3.124-1.395-4.785-1.329-1.661.067-3.323.598-4.918 1.196-2.791 1.064-5.516 2.459-7.709 4.519-2.193 2.06-3.854 4.785-4.187 7.775-.332 2.991.798 6.247 3.19 8.041 1.728 1.263 4.054 1.795 5.981.931 1.928-.864 4.121-3.987 2.393-5.184 2.658 1.795 4.187 6.579 3.057 9.57-1.13 2.99-4.12 5.183-7.31 5.515-3.19.333-6.447-.93-8.773-3.189-1.927-1.861-3.12-3.95-3.788-6.978-.231-1.047-.276-1.654-.332-2.725-.373-7.054 2.658-12.36 7.31-16.547 4.984-4.386 9.57-7.31 18.143-7.443 7.975-2.591 17.079-.531 23.925 4.386 2.99 2.127 5.582 4.719 7.31 7.908 1.661 3.124 2.459 6.912 1.661 10.434-.797 3.522-3.256 6.778-6.579 8.107-3.389 1.329-7.576.598-9.969-2.126z" fill="#fff"/><path d="M164.051 160.129h-3.057v3.057c13.026 13.025 11.763 22.395 6.845 27.312l4.719-.664c5.05-.665 7.908-6.181 5.582-10.699l-2.06-4.054 4.054 2.06c4.519 2.326 9.968-.532 10.699-5.582l.665-4.719c-4.984 4.985-14.421 6.247-27.447-6.711z" fill="#fff"/><path d="M189.836 188.903v-7.11h-7.11v7.11h7.11z" fill="#fff"/></svg>